<?xml version="1.0" encoding="utf-8"?><svg xmlns="http://www.w3.org/2000/svg" xmlns:xlink="http://www.w3.org/1999/xlink"><symbol viewBox="0 0 24 24" id="medal" xmlns="http://www.w3.org/2000/svg"><path d="M12 12a6 6 0 1 0 0 12 6 6 0 0 0 0-12zm0 11c-2.757 0-5-2.243-5-5s2.243-5 5-5 5 2.243 5 5-2.243 5-5 5zm0-9c-2.206 0-4 1.794-4 4s1.794 4 4 4 4-1.794 4-4-1.794-4-4-4zm1.39 5.939L12 19.196l-1.39.744.276-1.552-1.136-1.094 1.562-.215L12 15.66l.688 1.419 1.562.215-1.137 1.093.277 1.552zM3.658 2.014L3 3l5.234 7.946c.355-.19.731-.345 1.116-.48L3.658 2.014zM15.195 3l3.051-3H5.707L9 3h6.195zm4.699-1.661l-.667-1-6.605 9.692a7.99 7.99 0 0 1 1.274.213l5.998-8.905zM4.107 1.34l5.996 8.903a7.917 7.917 0 0 1 1.219-.208L4.751.375l-.644.965zm10.541 9.127c.369.13.73.277 1.073.458L21 3l-.657-.986-5.695 8.453z"/></symbol></svg>